{
  "accessors": [
    {
      "bufferView": 2,
      "componentType": 5126,
      "count": 31757,
      "max": [
        0.9846640825271606,
        0.11042200028896332,
        0.9975419640541077
      ],
      "min": [
        -0.9930429458618164,
        -0.12651698291301727,
        -0.9921960234642029
      ],
      "type": "VEC3"
    },
    {
      "bufferView": 2,
      "byteOffset": 381084,
      "componentType": 5126,
      "count": 31757,
      "max": [
        0.9996068477630615,
        0.9999995827674866,
        0.9999349117279053
      ],
      "min": [
        -0.9999592304229736,
        -1.0,
        -0.9989299774169922
      ],
      "type": "VEC3"
    },
    {
      "bufferView": 3,
      "componentType": 5126,
      "count": 31757,
      "max": [
        1.0,
        0.9999924302101135,
        0.99988853931427,
        1.0
      ],
      "min": [
        -0.9999995231628418,
        -0.9999284148216248,
        -1.0,
        1.0
      ],
      "type": "VEC4"
    },
    {
      "bufferView": 1,
      "componentType": 5126,
      "count": 31757,
      "max": [
        0.99951171875,
        0.99951171875
      ],
      "min": [
        0.0005478858947753906,
        0.20263671875
      ],
      "type": "VEC2"
    },
    {
      "bufferView": 1,
      "byteOffset": 254056,
      "componentType": 5126,
      "count": 31757,
      "max": [
        0.99951171875,
        0.99951171875
      ],
      "min": [
        0.0005478858947753906,
        0.20263671875
      ],
      "type": "VEC2"
    },
    {
      "bufferView": 1,
      "byteOffset": 508112,
      "componentType": 5126,
      "count": 31757,
      "max": [
        0.99951171875,
        0.99951171875
      ],
      "min": [
        0.0005478858947753906,
        0.20263671875
      ],
      "type": "VEC2"
    },
    {
      "bufferView": 1,
      "byteOffset": 762168,
      "componentType": 5126,
      "count": 31757,
      "max": [
        0.99951171875,
        0.99951171875
      ],
      "min": [
        0.0005478858947753906,
        0.20263671875
      ],
      "type": "VEC2"
    },
    {
      "bufferView": 0,
      "componentType": 5125,
      "count": 164367,
      "type": "SCALAR"
    }
  ],
  "asset": {
    "extras": {
      "author": "KamillaKraus (https://sketchfab.com/KamillaKraus)",
      "license": "CC-BY-4.0 (http://creativecommons.org/licenses/by/4.0/)",
      "source": "https://sketchfab.com/3d-models/ancient-terrain-e14013a648fc4b528e95f353d1922368",
      "title": "Ancient Terrain"
    },
    "generator": "Sketchfab-16.41.0",
    "version": "2.0"
  },
  "bufferViews": [
    {
      "buffer": 0,
      "byteLength": 657468,
      "name": "floatBufferViews",
      "target": 34963
    },
    {
      "buffer": 0,
      "byteLength": 1016224,
      "byteOffset": 657468,
      "byteStride": 8,
      "name": "floatBufferViews",
      "target": 34962
    },
    {
      "buffer": 0,
      "byteLength": 762168,
      "byteOffset": 1673692,
      "byteStride": 12,
      "name": "floatBufferViews",
      "target": 34962
    },
    {
      "buffer": 0,
      "byteLength": 508112,
      "byteOffset": 2435860,
      "byteStride": 16,
      "name": "floatBufferViews",
      "target": 34962
    }
  ],
  "buffers": [
    {
      "byteLength": 2943972,
      "uri": "scene.bin"
    }
  ],
  "images": [
    {
      "uri": "textures/Material_1_baseColor.png"
    },
    {
      "uri": "textures/Material_1_metallicRoughness.png"
    },
    {
      "uri": "textures/Material_1_normal.png"
    }
  ],
  "materials": [
    {
      "name": "Material_1",
      "normalTexture": {
        "index": 2
      },
      "pbrMetallicRoughness": {
        "baseColorTexture": {
          "index": 0
        },
        "metallicFactor": 0.0,
        "metallicRoughnessTexture": {
          "index": 1
        }
      }
    }
  ],
  "meshes": [
    {
      "name": "Object_0",
      "primitives": [
        {
          "attributes": {
            "NORMAL": 1,
            "POSITION": 0,
            "TANGENT": 2,
            "TEXCOORD_0": 3,
            "TEXCOORD_1": 4,
            "TEXCOORD_2": 5,
            "TEXCOORD_3": 6
          },
          "indices": 7,
          "material": 0,
          "mode": 4
        }
      ]
    }
  ],
  "nodes": [
    {
      "children": [
        1
      ],
      "matrix": [
        1.0,
        0.0,
        0.0,
        0.0,
        0.0,
        2.220446049250313e-16,
        -1.0,
        0.0,
        0.0,
        1.0,
        2.220446049250313e-16,
        0.0,
        0.0,
        0.0,
        0.0,
        1.0
      ],
      "name": "Sketchfab_model"
    },
    {
      "children": [
        2
      ],
      "name": "root"
    },
    {
      "children": [
        3
      ],
      "matrix": [
        1.0,
        0.0,
        0.0,
        0.0,
        0.0,
        2.220446049250313e-16,
        1.0,
        0.0,
        0.0,
        -1.0,
        2.220446049250313e-16,
        0.0,
        0.0,
        0.0,
        0.0,
        1.0
      ],
      "name": "GLTF_SceneRootNode"
    },
    {
      "children": [
        4
      ],
      "name": "file1_0"
    },
    {
      "mesh": 0,
      "name": "Object_4"
    }
  ],
  "samplers": [
    {
      "magFilter": 9729,
      "minFilter": 9987,
      "wrapS": 10497,
      "wrapT": 10497
    }
  ],
  "scene": 0,
  "scenes": [
    {
      "name": "Sketchfab_Scene",
      "nodes": [
        0
      ]
    }
  ],
  "textures": [
    {
      "sampler": 0,
      "source": 0
    },
    {
      "sampler": 0,
      "source": 1
    },
    {
      "sampler": 0,
      "source": 2
    }
  ]
}
